<svg width="401" height="51" viewBox="0 0 401 51" fill="none" xmlns="http://www.w3.org/2000/svg">
<g clip-path="url(#clip0_1_126)">
<g clip-path="url(#clip1_1_126)">
<path d="M37.283 36.7762L0.97998 0.473181V0.109985H400.98V0.473181L364.677 36.7762C357.113 44.3409 344.847 44.3409 337.283 36.7762L314.677 14.1701C307.113 6.60553 294.847 6.60553 287.283 14.1701L264.677 36.7762C257.113 44.3409 244.847 44.3409 237.283 36.7762L214.677 14.1701C207.113 6.60553 194.847 6.60553 187.283 14.1701L164.677 36.7762C157.113 44.3409 144.847 44.3409 137.283 36.7762L114.677 14.1701C107.113 6.60553 94.8477 6.60553 87.283 14.1701L64.6769 36.7762C57.1123 44.3409 44.8477 44.3409 37.283 36.7762Z" fill="#FFFAF3"/>
</g>
</g>
<defs>
<clipPath id="clip0_1_126">
<rect width="400" height="50" fill="white" transform="translate(0.97998 0.109985)"/>
</clipPath>
<clipPath id="clip1_1_126">
<rect width="400" height="42.615" fill="white" transform="translate(0.97998 0.109985)"/>
</clipPath>
</defs>
</svg>
